<?xml version="1.0" encoding="UTF-8" standalone="no"?>
<!-- Created with Inkscape (http://www.inkscape.org/) -->

<svg
   width="320mm"
   height="120mm"
   viewBox="0 0 320 120"
   version="1.1"
   id="svg1"
   inkscape:version="1.3.2 (091e20e, 2023-11-25, custom)"
   sodipodi:docname="FACT0RN_LOGO.svg"
   xmlns:inkscape="http://www.inkscape.org/namespaces/inkscape"
   xmlns:sodipodi="http://sodipodi.sourceforge.net/DTD/sodipodi-0.dtd"
   xmlns="http://www.w3.org/2000/svg"
   xmlns:svg="http://www.w3.org/2000/svg">
  <sodipodi:namedview
     id="namedview1"
     pagecolor="#ffffff"
     bordercolor="#000000"
     borderopacity="0.25"
     inkscape:showpageshadow="2"
     inkscape:pageopacity="0.0"
     inkscape:pagecheckerboard="0"
     inkscape:deskcolor="#d1d1d1"
     inkscape:document-units="mm"
     inkscape:zoom="1.0128998"
     inkscape:cx="535.09735"
     inkscape:cy="142.65972"
     inkscape:window-width="2560"
     inkscape:window-height="1351"
     inkscape:window-x="-9"
     inkscape:window-y="-9"
     inkscape:window-maximized="1"
     inkscape:current-layer="layer1" />
  <defs
     id="defs1">
    <rect
       x="352.38345"
       y="271.38785"
       width="435.53418"
       height="106.14459"
       id="rect3" />
    <rect
       x="771.16602"
       y="280.06412"
       width="81.917564"
       height="139.64037"
       id="rect2" />
  </defs>
  <g
     inkscape:label="Ebene 1"
     inkscape:groupmode="layer"
     id="layer1">
    <path
       id="path5"
       style="fill:#f8fbf8;fill-opacity:1;stroke-width:0.192143"
       d="m 98.279247,42.800905 c -0.03637,6.419235 -0.06124,12.838547 -0.109116,19.257707 -0.01484,1.8004 -0.04157,3.60064 -0.0668,5.40091 -3.458126,-5.03903 -6.859244,-10.11684 -10.283726,-15.178732 -2.123142,-3.148258 -4.252075,-6.292861 -6.348365,-9.459194 -1.354283,0 -2.708565,0 -4.062848,0 -0.06384,1.911814 -0.154396,3.82283 -0.173695,5.735831 -0.109116,8.135215 -0.0887,16.271375 -0.108745,24.407135 -9.83e-4,0.57161 -0.0019,1.14321 -0.0037,1.71483 1.365454,0 2.730926,0 4.09638,0 0.07738,-0.43372 0.202811,-0.86204 0.199044,-1.30615 0.06514,-2.08241 0.07126,-4.16627 0.09483,-6.24947 0.05066,-5.69761 0.07144,-11.39543 0.105034,-17.093111 -0.02208,-0.181489 0.06161,-0.02153 0.116353,0.054 1.527458,2.196221 3.010305,4.452861 4.51143,6.681411 4.003595,5.97639 8.047607,11.9257 12.034927,17.91324 1.480693,0 2.96139,0 4.4421,0 -0.0844,-9.59134 -0.18317,-19.18259 -0.24784,-28.774112 -0.007,-1.155943 -0.006,-2.311943 -0.007,-3.467924 -1.39569,0 -2.791357,0 -4.187023,0 -5.01e-4,0.121179 -0.0015,0.242375 -0.0019,0.363554 z" />
    <path
       id="path4"
       style="fill:#f8fbf8;fill-opacity:1;stroke-width:0.192143"
       d="m 67.401479,28.760729 c -0.06087,1.557261 -0.148272,3.113853 -0.154396,4.672691 -0.06402,5.368437 -0.07497,10.737337 -0.08833,16.106089 -0.01113,7.232723 -0.0074,14.465693 -0.08796,21.698083 -0.0074,0.54844 -0.01485,1.09691 -0.03359,1.64513 -0.0037,0.0596 -0.0074,0.19915 -0.01967,0.2896 -0.04955,0.50236 -0.0991,1.00472 -0.148643,1.50707 1.490808,0 2.981615,0 4.472423,0 0,-15.42289 0,-30.845763 0,-46.268651 -1.308391,0 -2.616763,0 -3.925135,0 -0.0056,0.116724 -0.0093,0.233319 -0.01485,0.349988 z" />
    <path
       id="path3"
       style="fill:#f8fbf8;fill-opacity:1;stroke-width:0.192143"
       d="m 59.274336,28.775704 c -0.01299,10.052225 -0.01114,20.104469 -0.05196,30.156638 -0.0167,4.21606 -0.03767,8.43219 -0.101508,12.64785 -0.01299,1.03306 -0.02691,2.06614 -0.0399,3.0992 1.481176,0 2.962353,0 4.443529,0 -0.08444,-15.08883 -0.174994,-30.177631 -0.252303,-45.26649 -5.01e-4,-0.334066 -9.83e-4,-0.668114 -0.0015,-1.002161 -1.331922,0 -2.663861,0 -3.995783,0 -1.11e-4,0.121735 -1.85e-4,0.243303 -3.71e-4,0.364963 z" />
    <path
       id="path2"
       style="fill:#f8fbf8;fill-opacity:1;stroke-width:0.192143"
       d="m 44.270171,54.070792 c -1.273485,0.0256 -2.588741,0.10689 -3.763985,0.6439 -0.516204,0.22757 -0.967217,0.56991 -1.408766,0.91516 -0.06365,0.0212 -0.204017,0.18825 -0.224839,0.11302 -0.0037,-0.3584 0.0056,-0.77404 -0.274979,-1.04169 -0.340023,-0.30898 -0.830489,-0.30842 -1.262425,-0.33672 -0.969537,-0.0278 -1.939779,-0.009 -2.909613,-0.0148 0.07998,8.66144 0.140106,17.32309 0.248239,25.98425 0.01911,1.08435 0.02023,2.16938 0.0618,3.253102 0.06532,0.27673 0.153653,0.56865 0.349079,0.78182 0.293444,0.23185 0.689973,0.24137 1.04679,0.27551 0.862778,0.0488 1.727764,0.0167 2.591488,0.0258 0.16386,0.0481 0.158107,-0.0733 0.146231,-0.20093 0.0056,-2.838412 -0.01299,-5.676952 0.01485,-8.515292 0.01299,-0.92297 0.02542,-1.85458 0.06792,-2.7652 0.06458,-0.006 0.18637,0.0872 0.273143,0.11988 0.797438,0.40249 1.594728,0.81902 2.455205,1.07262 1.851391,0.58186 3.870818,0.57798 5.730783,0.0351 0.847208,-0.25052 1.679441,-0.57607 2.43867,-1.0315 1.521352,-0.93164 2.636081,-2.41814 3.342589,-4.03733 0.859344,-1.96283 1.15637,-4.13622 1.059409,-6.26677 -0.04658,-1.33429 -0.280528,-2.68564 -0.890001,-3.88522 -0.434052,-0.85851 -0.997095,-1.65054 -1.640917,-2.36405 -1.066461,-1.16288 -2.468955,-1.98205 -3.956255,-2.48308 -0.980727,-0.30532 -2.021041,-0.26425 -3.035802,-0.28067 -0.15254,9.8e-4 -0.305098,0.002 -0.457656,0.004 z m 0.892989,3.90337 c 0.580264,-0.0148 1.14531,0.14697 1.678031,0.36407 1.630524,0.63729 2.89525,2.13812 3.228592,3.85941 0.329928,1.5671 0.215578,3.22501 -0.310127,4.73662 -0.254437,0.71968 -0.609751,1.415 -1.135308,1.9758 -0.530531,0.58195 -1.132729,1.11788 -1.837901,1.47815 -0.486587,0.22102 -1.032446,0.25637 -1.559209,0.28415 -1.08294,0.0238 -2.180299,-0.11172 -3.202538,-0.47965 -0.695912,-0.24529 -1.267472,-0.75082 -1.724275,-1.3178 -0.809593,-1.03046 -1.143585,-2.34611 -1.259437,-3.63013 -0.02375,-0.25023 -0.0386,-0.50507 -0.04658,-0.73906 -0.0093,-0.68101 -0.03767,-1.36536 0.0321,-2.04414 0.07015,-0.60526 0.384504,-1.14207 0.671064,-1.66718 0.61491,-1.05657 1.576634,-1.91493 2.720497,-2.3575 0.86957,-0.35253 1.813331,-0.45916 2.74516,-0.46274 z" />
    <path
       style="fill:#0c090a;fill-opacity:1;stroke-width:0.41859"
       d="M 61.322173,114.22722 C 48.888527,112.62934 35.871556,105.56845 27.728361,96.004664 19.56865,86.421464 15.144956,75.252582 14.561408,62.760792 14.107778,53.050207 15.685749,44.912152 19.627383,36.634066 22.628205,30.331833 25.490999,26.226081 30.264975,21.377839 40.605708,10.876255 53.702142,5.4307035 68.617492,5.4307035 c 14.926614,0 27.922597,5.3997165 38.374208,15.9441295 7.6768,7.744995 12.92276,17.653866 15.03311,28.395453 0.86219,4.388486 0.77525,16.733136 -0.14827,21.041156 -4.43022,20.667962 -19.4327,36.750488 -39.175096,41.995388 -6.853788,1.82083 -14.375058,2.32054 -21.379345,1.42039 z M 38.602482,78.553152 v -5.89291 l 1.771726,0.93673 c 3.399819,1.79753 8.444971,0.96237 11.021317,-1.82445 2.353956,-2.54628 3.294451,-7.4841 2.155506,-11.31693 -1.077892,-3.62733 -4.68583,-6.27202 -8.556389,-6.27202 -2.32792,0 -4.550956,0.62647 -5.662622,1.59574 -0.664272,0.57921 -0.729538,0.55508 -0.729538,-0.26967 0,-0.79328 -0.232948,-0.90576 -1.875943,-0.90576 h -1.875924 v 14.64088 c 0,8.05248 0.125075,14.766982 0.277912,14.921102 0.152911,0.15402 0.99702,0.28021 1.875943,0.28021 h 1.598012 z m 2.816197,-8.21658 c -2.615149,-1.43056 -3.723178,-6.87224 -1.984688,-9.74708 2.300401,-3.80408 7.839674,-4.02653 10.190439,-0.40924 1.750329,2.69337 1.132803,7.41091 -1.245705,9.51648 -1.247783,1.1046 -1.793567,1.29681 -3.641841,1.28251 -1.195749,-0.009 -2.688932,-0.29846 -3.318205,-0.64267 z M 63.097481,51.556616 62.989664,28.754661 h -1.667509 -1.66749 L 59.546847,51.556616 59.43903,74.358572 h 1.883106 1.883125 z m 8.021255,-0.129344 -0.07757,-22.716258 -1.684507,0.01114 -1.781412,0.03155 -0.107817,22.801955 -0.107817,22.801953 h 1.879524 1.879524 z m 10.103128,10.21675 0.110229,-12.71445 8.545941,12.70269 8.545941,12.7027 1.985225,0.0111 1.98524,0.0111 -0.1093,-15.65662 -0.1286,-15.930186 -1.70753,0.04695 -1.804428,-0.03118 -0.110229,12.869166 -0.11023,12.86915 -8.595303,-12.74023 -8.595284,-12.740216 h -1.826581 -1.826599 l -0.109302,15.656696 -0.109301,15.65664 h 1.874903 1.874904 z"
       id="path1"
       sodipodi:nodetypes="sssssssssssccssssssscsssccssssssccccccccccccccccccccccccccccccccccccccc" />
    <text
       xml:space="preserve"
       id="text2"
       style="white-space:pre;shape-inside:url(#rect2);fill:#0c090a"
       transform="matrix(0.18266434,0,0,0.18266434,14.485899,5.4307035)" />
    <text
       xml:space="preserve"
       id="text3"
       style="font-style:normal;font-variant:normal;font-weight:normal;font-stretch:normal;font-size:85.5784px;font-family:'Malgun Gothic';-inkscape-font-specification:'Malgun Gothic';white-space:pre;shape-inside:url(#rect3);fill:#0c090a"
       transform="matrix(0.49715041,0,0,0.50875155,-41.439007,-104.06892)"><tspan
         x="352.38281"
         y="350.53198"
         id="tspan1">FACT0RN</tspan></text>
  </g>
</svg>
