<?xml version="1.0" encoding="UTF-8" standalone="no"?>
<!-- Created with Inkscape (http://www.inkscape.org/) -->

<svg
   version="1.1"
   id="svg1"
   width="592"
   height="598"
   viewBox="0 0 592 598"
   sodipodi:docname="FACT0RN_SNOWDRIFT_FRAME_TRANSPARENT.svg"
   inkscape:version="1.3.2 (091e20e, 2023-11-25, custom)"
   xmlns:inkscape="http://www.inkscape.org/namespaces/inkscape"
   xmlns:sodipodi="http://sodipodi.sourceforge.net/DTD/sodipodi-0.dtd"
   xmlns="http://www.w3.org/2000/svg"
   xmlns:svg="http://www.w3.org/2000/svg">
  <defs
     id="defs1" />
  <sodipodi:namedview
     id="namedview1"
     pagecolor="#ffffff"
     bordercolor="#000000"
     borderopacity="0.25"
     inkscape:showpageshadow="2"
     inkscape:pageopacity="0.0"
     inkscape:pagecheckerboard="0"
     inkscape:deskcolor="#d1d1d1"
     inkscape:zoom="0.9506689"
     inkscape:cx="299.78892"
     inkscape:cy="315.04134"
     inkscape:window-width="2560"
     inkscape:window-height="1351"
     inkscape:window-x="-9"
     inkscape:window-y="-9"
     inkscape:window-maximized="1"
     inkscape:current-layer="g1" />
  <g
     inkscape:groupmode="layer"
     inkscape:label="Image"
     id="g1">
    <path
       style="fill:#f8fbf8;stroke-width:2.2917;fill-opacity:1"
       d="m 252.45624,594.622 c -11.08361,-1.73925 -27.86853,-5.34648 -37.2998,-8.01608 -9.43129,-2.66959 -25.32705,-8.38534 -35.32392,-12.70165 -9.99688,-4.31631 -24.52872,-11.58058 -32.29297,-16.1428 -7.76425,-4.56222 -21.41278,-13.8076 -30.33008,-20.54529 C 108.29215,530.4785 94.114506,517.95523 85.703546,509.38672 77.292586,500.81823 65.408241,487.06903 59.293844,478.83296 53.179445,470.59687 43.97191,456.44475 38.832633,447.3838 33.693355,438.32283 25.983138,422.20579 21.698824,411.56816 17.414512,400.9305 11.808665,383.9408 9.2413763,373.81327 6.6740877,363.68574 3.5516997,348.14919 2.302749,339.2876 1.0537984,330.42601 0.01764187,312.30003 1.638164e-4,299.00765 -0.01809002,285.71527 1.4915026,264.64645 3.3530294,252.18808 5.2145562,239.72971 10.283009,218.84843 14.616266,205.78527 18.949545,192.72209 26.259501,174.43163 30.860633,165.13981 35.461765,155.84796 44.985843,139.4415 52.025208,128.681 59.064597,117.9205 74.611509,99.243329 86.573912,87.176193 98.536293,75.109034 117.13944,59.331169 127.91425,52.114268 c 10.77481,-7.2169 30.50178,-18.379465 43.83774,-24.805705 14.32845,-6.90449 35.24945,-14.555816 51.1431,-18.7042827 22.49416,-5.8713207 32.73638,-7.2159115 62.58308,-8.21591305 27.41287,-0.91845193 41.1678,-0.28511299 59.32499,2.73162515 13.00079,2.1599951 32.58117,6.9206936 43.51198,10.5793096 10.9308,3.658617 27.62507,10.362352 37.09832,14.897183 9.4733,4.534809 26.33683,14.393868 37.47456,21.909025 11.13771,7.515134 28.0959,21.05486 37.68482,30.088295 9.58894,9.033435 24.10723,25.361135 32.26289,36.283815 8.15566,10.92266 20.32989,30.73495 27.05388,44.02734 6.72398,13.29238 14.84222,31.93625 18.04053,41.4308 3.19829,9.49456 7.68376,26.06689 9.96772,36.82739 3.13513,14.77063 4.14,29.43438 4.10106,59.8445 -0.0391,30.37865 -1.08584,45.08914 -4.25911,59.8445 -2.31412,10.7605 -7.28545,28.36859 -11.04735,39.12909 -3.76195,10.7605 -9.93407,25.77917 -13.71587,33.37482 -3.78179,7.59565 -11.50161,21.06066 -17.15515,29.92225 -5.65353,8.86159 -16.5602,23.69241 -24.23706,32.95735 -7.67684,9.26496 -22.82908,24.28363 -33.67161,33.37481 -10.84256,9.09121 -27.85582,21.40863 -37.80726,27.3721 -9.95143,5.96348 -26.39328,14.42621 -36.53739,18.8061 -10.14414,4.37989 -26.02572,10.10954 -35.29239,12.73254 -9.26667,2.62302 -27.07837,6.32446 -39.58154,8.22545 -12.50317,1.90098 -32.48744,3.36213 -44.40948,3.24697 -11.92204,-0.11505 -30.74485,-1.63239 -41.82847,-3.37163 z m 93.26577,-20.6916 c 10.09372,-1.8099 27.19108,-6.30465 37.99413,-9.98831 10.80306,-3.68364 28.21403,-11.04264 38.69106,-16.35333 10.47701,-5.31072 27.04819,-15.44739 36.82489,-22.52594 9.77666,-7.07856 26.4612,-21.95878 37.07674,-33.06717 10.61555,-11.10837 25.16502,-29.27203 32.33216,-40.36368 7.16715,-11.09167 16.98611,-29.42052 21.81992,-40.73081 4.83379,-11.31028 11.2451,-29.82322 14.24733,-41.13987 3.00225,-11.31662 6.66401,-31.03487 8.13726,-43.8183 1.55176,-13.46458 2.03318,-31.86771 1.14438,-43.74472 -0.84386,-11.27617 -3.1534,-28.42043 -5.13234,-38.09834 -1.97892,-9.67789 -6.67306,-26.40024 -10.43136,-37.16074 -3.75833,-10.7605 -10.7272,-27.33283 -15.48634,-36.82739 -4.75917,-9.49456 -14.07108,-25.03111 -20.69314,-34.52567 -6.62208,-9.49456 -20.35089,-25.54899 -30.50847,-35.676524 C 481.58067,89.782076 465.33434,75.990934 455.63527,69.26264 445.93623,62.534347 427.4836,51.97833 414.62944,45.80484 401.77529,39.631351 383.55741,32.4124 374.14527,29.762716 c -9.41214,-2.64966 -26.86737,-6.329383 -38.78941,-8.177152 -11.92204,-1.847768 -29.37727,-3.359578 -38.78941,-3.359578 -9.41214,0 -26.95349,1.496389 -38.98077,3.325306 -12.02726,1.82894 -32.04944,6.585611 -44.49373,10.57038 -12.44428,3.984791 -32.41915,12.376924 -44.38859,18.64918 -11.96946,6.272256 -28.83928,16.75013 -37.48847,23.284182 -8.64919,6.534029 -22.50856,18.72219 -30.79856,27.084796 -8.29001,8.3626 -20.329353,22.2854 -26.754136,30.93955 -6.424759,8.65414 -16.304969,24.63592 -21.95604,35.51505 -5.651047,10.8791 -13.411325,28.81743 -17.245042,39.86292 -3.833718,11.04548 -8.756391,29.17146 -10.939253,40.27995 -2.699356,13.73687 -3.919055,30.50454 -3.813205,52.4212 0.101992,21.1357 1.498594,38.56012 4.058467,50.63765 2.146538,10.12754 6.442169,26.18197 9.545825,35.67653 3.103677,9.49457 9.876286,25.94761 15.050246,36.56234 5.173937,10.61471 14.96783,27.18704 21.764192,36.82739 6.796361,9.64032 19.197634,24.59788 27.558395,33.23902 8.360761,8.64111 22.960461,21.64827 32.443761,28.90482 9.48331,7.25654 27.45193,18.46039 39.93028,24.89747 12.47835,6.43706 32.4423,14.81959 44.36434,18.62784 11.92204,3.80824 29.37728,8.07257 38.78941,9.47628 9.41214,1.40373 21.22009,2.92084 26.2399,3.37137 5.01981,0.45052 17.85454,0.37426 28.52163,-0.1694 10.66709,-0.54374 27.6532,-2.46945 37.74691,-4.27938 z M 111.7463,350.79615 V 269.0854 h 10.26779 c 7.45202,0 10.26779,0.91594 10.26779,3.34003 0,2.74632 1.72379,2.55071 9.69735,-1.10031 6.22314,-2.84952 14.83905,-4.45844 24.04907,-4.49089 9.72507,-0.0343 17.0808,1.36551 22.8173,4.34209 4.65608,2.41595 11.23476,7.33585 14.61929,10.93313 3.38457,3.59728 7.74837,10.39137 9.69736,15.09798 2.06871,4.99568 3.54364,15.32519 3.54364,24.81734 0,9.47586 -1.47623,19.83021 -3.53823,24.81732 -1.94604,4.70661 -6.82325,12.01211 -10.83822,16.23443 -4.015,4.2223 -10.03519,9.1227 -13.37822,10.88972 -3.34303,1.76703 -11.55726,3.84904 -18.25384,4.62667 -8.17183,0.94895 -15.17689,0.3083 -21.30253,-1.94826 -5.01981,-1.8492 -10.92379,-4.13039 -13.11995,-5.06931 -3.69015,-1.57766 -3.99302,0.66837 -3.99302,29.6122 v 31.31937 H 122.01409 111.7463 Z m 75.52426,-0.65691 c 3.5167,-3.97033 7.5419,-11.51907 8.94489,-16.775 1.40299,-5.25591 1.90535,-13.41049 1.11638,-18.12128 -0.78898,-4.71078 -3.3054,-11.66849 -5.59208,-15.46154 -2.28666,-3.79306 -8.01552,-8.74321 -12.73073,-11.00035 -5.82618,-2.78889 -11.51528,-3.70578 -17.75527,-2.86149 -5.05015,0.68331 -11.83793,3.20445 -15.08394,5.60256 -3.24603,2.39811 -7.69714,7.91174 -9.89138,12.25254 -2.1942,4.34081 -3.99105,12.32766 -3.99302,17.74858 -0.003,5.4209 1.39701,13.23756 3.10881,17.37031 1.71178,4.13276 6.53988,10.42346 10.7291,13.97932 6.89061,5.84884 8.91037,6.37082 21.185,5.47517 11.70521,-0.85407 14.44621,-1.98121 19.96224,-8.20882 z m 59.09783,-98.31667 V 126.37929 h 10.26777 10.26779 v 125.44328 125.44326 h -10.26779 -10.26777 z m 43.35287,0 V 126.37929 h 10.26778 10.26779 v 125.44328 125.44326 h -10.26779 -10.26778 z m 54.76153,39.12909 v -86.31418 l 10.83821,0.0997 10.83822,0.0997 46.77546,69.52714 46.77547,69.52719 0.60388,-69.62677 0.60392,-69.62678 h 10.2343 10.23433 v 86.31419 86.31417 h -11.03351 -11.03351 l -45.43931,-67.78393 c -24.99163,-37.2811 -46.20939,-67.83632 -47.1506,-67.90048 -0.94122,-0.0642 -1.7113,30.43854 -1.7113,67.78381 v 67.90048 h -10.26779 -10.26777 z"
       id="path1" />
  </g>
</svg>
