<?xml version="1.0" encoding="UTF-8" standalone="no"?>
<!-- Created with Inkscape (http://www.inkscape.org/) -->

<svg
   version="1.1"
   id="svg1"
   width="592"
   height="598"
   viewBox="0 0 592 598"
   sodipodi:docname="FACT0RN_NIGHT_SOLLID_FILLED.svg"
   inkscape:version="1.3.2 (091e20e, 2023-11-25, custom)"
   xmlns:inkscape="http://www.inkscape.org/namespaces/inkscape"
   xmlns:sodipodi="http://sodipodi.sourceforge.net/DTD/sodipodi-0.dtd"
   xmlns="http://www.w3.org/2000/svg"
   xmlns:svg="http://www.w3.org/2000/svg">
  <defs
     id="defs1" />
  <sodipodi:namedview
     id="namedview1"
     pagecolor="#ffffff"
     bordercolor="#000000"
     borderopacity="0.25"
     inkscape:showpageshadow="2"
     inkscape:pageopacity="0.0"
     inkscape:pagecheckerboard="0"
     inkscape:deskcolor="#d1d1d1"
     inkscape:zoom="0.9506689"
     inkscape:cx="82.047493"
     inkscape:cy="290.84784"
     inkscape:window-width="2560"
     inkscape:window-height="1351"
     inkscape:window-x="-9"
     inkscape:window-y="-9"
     inkscape:window-maximized="1"
     inkscape:current-layer="g1" />
  <g
     inkscape:groupmode="layer"
     inkscape:label="Image"
     id="g1">
    <path
       id="path5"
       style="fill:#f8fbf8;fill-opacity:1;stroke-width:1.05189"
       d="m 458.72852,204.58398 c -0.1994,35.14225 -0.33499,70.28493 -0.59735,105.42676 -0.0795,9.85628 -0.22702,19.71181 -0.36555,29.56738 -18.93154,-27.5862 -37.551,-55.3848 -56.29846,-83.09627 -11.62321,-17.23521 -23.27806,-34.45045 -34.75427,-51.78458 -7.41406,0 -14.82812,0 -22.24219,0 -0.3492,10.46627 -0.845,20.92819 -0.95088,31.40093 -0.5976,44.53646 -0.48599,89.07804 -0.59555,133.61734 -0.005,3.12933 -0.01,6.25865 -0.0161,9.38798 7.47526,0 14.95052,0 22.42578,0 0.42361,-2.37446 1.11028,-4.71933 1.08959,-7.15052 0.35664,-11.40022 0.38981,-22.80834 0.51941,-34.21299 0.27781,-31.1916 0.39156,-62.38447 0.5754,-93.57659 -0.12111,-0.99322 0.33726,-0.11758 0.63655,0.29606 8.36207,12.02327 16.47998,24.37734 24.69799,36.57751 21.91768,32.71794 44.05669,65.28753 65.88536,98.06653 8.10612,0 16.21224,0 24.31836,0 -0.46249,-52.50808 -1.00317,-105.01558 -1.35684,-157.52454 -0.0453,-6.32831 -0.0283,-12.65681 -0.0396,-18.98523 -7.64063,0 -15.28125,0 -22.92188,0 -0.003,0.66341 -0.007,1.32682 -0.01,1.99023 z" />
    <path
       id="path4"
       style="fill:#f8fbf8;fill-opacity:1;stroke-width:1.05189"
       d="m 289.6875,127.7207 c -0.33279,8.5253 -0.8116,17.04686 -0.84559,25.5808 -0.35014,29.38959 -0.41021,58.78177 -0.48375,88.17311 -0.0572,39.59577 -0.0382,79.19283 -0.48133,118.78667 -0.0436,3.00242 -0.086,6.00505 -0.18347,9.0063 -0.0191,0.32601 -0.0446,1.09024 -0.1077,1.58547 -0.2714,2.75016 -0.54285,5.5003 -0.81418,8.25047 8.16146,0 16.32292,0 24.48438,0 0,-84.43295 0,-168.86589 0,-253.29883 -7.16276,0 -14.32552,0 -21.48828,0 -0.0267,0.63867 -0.0534,1.27734 -0.0801,1.91601 z" />
    <path
       id="path3"
       style="fill:#f8fbf8;fill-opacity:1;stroke-width:1.05189"
       d="m 245.19531,127.80273 c -0.0751,55.03109 -0.0624,110.0624 -0.2847,165.09317 -0.0921,23.08094 -0.20598,46.16219 -0.5554,69.24093 -0.0727,5.65556 -0.14711,11.3111 -0.21849,16.96669 8.10872,0 16.21745,0 24.32617,0 -0.46203,-82.60416 -0.95767,-165.20816 -1.38125,-247.8125 -0.003,-1.82878 -0.005,-3.65756 -0.009,-5.48633 -7.29167,0 -14.58334,0 -21.875,0 -6.6e-4,0.66601 -0.001,1.33203 -0.002,1.99804 z" />
    <path
       id="path2"
       style="fill:#f8fbf8;fill-opacity:1;stroke-width:1.05189"
       d="m 163.05469,266.28125 c -6.97174,0.13969 -14.1722,0.58512 -20.60607,3.52508 -2.82595,1.24579 -5.29501,3.11996 -7.71229,5.01008 -0.34812,0.11623 -1.11695,1.03049 -1.23089,0.61872 -0.0182,-1.96196 0.0338,-4.23741 -1.50544,-5.70271 -1.86146,-1.69149 -4.54653,-1.68843 -6.91116,-1.84334 -5.30769,-0.15231 -10.61934,-0.0471 -15.92868,-0.0785 0.43754,47.41726 0.767,94.8357 1.359,142.25139 0.10451,5.93623 0.11047,11.87639 0.33826,17.80915 0.35772,1.515 0.84163,3.11307 1.91106,4.28002 1.60638,1.26932 3.77727,1.32151 5.73064,1.50841 4.72331,0.26693 9.45869,0.0894 14.18721,0.14126 0.89671,0.26338 0.86554,-0.40113 0.8,-1.1 0.0289,-15.53898 -0.0699,-31.07858 0.0772,-46.61709 0.0663,-5.05284 0.13863,-10.15301 0.37133,-15.13821 0.3534,-0.0347 1.02021,0.47709 1.49524,0.6559 4.36564,2.20342 8.73042,4.48378 13.44113,5.87212 10.13545,3.18535 21.19081,3.1641 31.37325,0.19165 4.63807,-1.37151 9.19416,-3.15369 13.35062,-5.64699 8.32861,-5.10027 14.4313,-13.23809 18.29901,-22.10245 4.70449,-10.74551 6.33056,-22.64379 5.79978,-34.30753 -0.25516,-7.30462 -1.53575,-14.70268 -4.87231,-21.26973 -2.37627,-4.69989 -5.45869,-9.03596 -8.98328,-12.94205 -5.83838,-6.36617 -13.51632,-10.85071 -21.65861,-13.59367 -5.36897,-1.67151 -11.06425,-1.44663 -16.61953,-1.53651 -0.83516,0.005 -1.67032,0.01 -2.50547,0.015 z m 4.88867,21.36914 c 3.17663,-0.0763 6.27004,0.80434 9.18642,1.99311 8.9263,3.48886 15.85003,11.70511 17.67496,21.12841 1.80616,8.5791 1.18017,17.65533 -1.69776,25.93072 -1.39295,3.93988 -3.33815,7.74642 -6.2153,10.81654 -2.90443,3.18591 -6.20115,6.11988 -10.0616,8.09216 -2.66382,1.20991 -5.65222,1.40352 -8.53592,1.5556 -5.9286,0.13014 -11.93616,-0.61128 -17.53244,-2.62591 -3.80972,-1.34274 -6.93872,-4.11033 -9.43952,-7.21431 -4.43218,-5.64126 -6.26061,-12.84378 -6.89485,-19.87322 -0.12969,-1.36986 -0.21154,-2.76505 -0.25493,-4.04594 -0.0538,-3.72828 -0.20585,-7.47477 0.17524,-11.19075 0.38429,-3.31349 2.10501,-6.25223 3.67382,-9.12696 3.3663,-5.78424 8.63131,-10.48336 14.89338,-12.90624 4.76047,-1.92993 9.92715,-2.51363 15.0285,-2.53321 z" />
    <path
       style="fill:#0c090a;stroke-width:2.29158;fill-opacity:1"
       d="M 256.40623,595.6089 C 188.33789,586.86125 117.07624,548.20624 72.496176,495.84915 27.825575,443.38572 3.6080717,382.24144 0.41339087,313.85484 -2.0700221,260.69398 6.5685997,216.14206 28.147136,170.82355 44.575267,136.32177 60.247651,113.84474 86.382926,87.302963 142.99352,29.811793 214.6902,0 296.34459,0 c 81.71608,0 152.86289,29.560868 210.08024,87.286443 42.02684,42.400157 70.74596,96.646537 82.29915,155.451607 4.72007,24.02489 4.2441,91.60585 -0.8113,115.1903 -24.2534,113.14713 -106.38472,201.19129 -214.46479,229.90466 -37.52121,9.96816 -78.6966,12.70374 -117.04166,7.77589 z M 132.02677,400.31047 v -32.26092 l 9.69931,5.12815 c 18.61247,9.84066 46.23217,5.26855 60.33643,-9.98794 12.88686,-13.93964 18.03562,-40.97186 11.8004,-61.95479 -5.9009,-19.85788 -25.65264,-34.33632 -46.84215,-34.33632 -12.74422,0 -24.91426,3.42959 -31.00016,8.73599 -3.6366,3.17085 -3.99383,3.03878 -3.99383,-1.47633 0,-4.34292 -1.27527,-4.95865 -10.26987,-4.95865 h -10.26986 v 80.15184 c 0,44.08353 0.68466,80.84216 1.52147,81.68586 0.83679,0.84371 5.45822,1.53401 10.26986,1.53401 h 8.7484 z m 15.41734,-44.9819 c -14.31666,-7.83152 -20.38264,-37.62212 -10.86528,-53.36054 12.59366,-20.82557 42.9185,-22.04335 55.78779,-2.24036 9.58224,14.74492 6.20163,40.57112 -6.81958,52.09816 -6.83105,6.04718 -9.81896,7.09942 -19.93737,7.02109 -6.54614,-0.0506 -14.72063,-1.63393 -18.16556,-3.51835 z M 266.1252,252.51735 265.535,127.68755 h -9.12877 -9.12877 l -0.59019,124.8298 -0.5902,124.82979 h 10.30916 10.30916 z m 43.91254,-0.70757 -0.42437,-124.36071 -9.2219,0.0658 -9.75235,0.1728 -0.5902,124.8298 -0.59021,124.82979 h 10.28953 10.2895 z m 55.30971,55.9318 0.604,-69.60555 46.78494,69.54119 46.78493,69.54122 10.8682,0.0644 10.86818,0.0644 -0.59833,-85.71262 -0.70441,-87.21016 -9.34788,0.25678 -9.87832,-0.17121 -0.60373,70.45256 -0.60371,70.45237 -47.0551,-69.74661 -47.0551,-69.74662 h -9.9997 -9.99969 l -0.59833,85.71261 -0.59832,85.71262 h 10.26417 10.26417 z"
       id="path1"
       sodipodi:nodetypes="sssssssssssccssssssscsssccssssssccccccccccccccccccccccccccccccccccccccc" />
  </g>
</svg>
