<?xml version="1.0" encoding="UTF-8" standalone="no"?>
<!-- Created with Inkscape (http://www.inkscape.org/) -->

<svg
   version="1.1"
   id="svg1"
   width="592"
   height="598"
   viewBox="0 0 592 598"
   sodipodi:docname="FACT0RN_SNOWDRIFT_SOLLID_FILLED.svg"
   inkscape:version="1.3.2 (091e20e, 2023-11-25, custom)"
   xmlns:inkscape="http://www.inkscape.org/namespaces/inkscape"
   xmlns:sodipodi="http://sodipodi.sourceforge.net/DTD/sodipodi-0.dtd"
   xmlns="http://www.w3.org/2000/svg"
   xmlns:svg="http://www.w3.org/2000/svg">
  <defs
     id="defs1" />
  <sodipodi:namedview
     id="namedview1"
     pagecolor="#ffffff"
     bordercolor="#000000"
     borderopacity="0.25"
     inkscape:showpageshadow="2"
     inkscape:pageopacity="0.0"
     inkscape:pagecheckerboard="0"
     inkscape:deskcolor="#d1d1d1"
     inkscape:zoom="1.3444489"
     inkscape:cx="122.72687"
     inkscape:cy="267.39582"
     inkscape:window-width="2560"
     inkscape:window-height="1351"
     inkscape:window-x="-9"
     inkscape:window-y="-9"
     inkscape:window-maximized="1"
     inkscape:current-layer="g1" />
  <g
     inkscape:groupmode="layer"
     inkscape:label="Image"
     id="g1">
    <path
       id="path6"
       style="fill:#0c090a;fill-opacity:1;stroke-width:0.525945"
       d="m 458.72852,204.56641 c -0.39239,44.80073 -0.78098,89.60157 -1.17188,134.40234 -0.92472,-1.36682 -2.03153,-2.57737 -2.75391,-4.08203 -0.12767,-0.81495 -0.7197,-1.45269 -1.34765,-1.90234 -1.021,-2.04047 -2.66796,-3.6973 -3.7168,-5.71094 -0.79579,-1.97929 -2.48724,-3.416 -3.62671,-5.1918 -1.71707,-2.37928 -2.94607,-5.10076 -4.94827,-7.27345 -1.14909,-1.5733 -1.99238,-3.34593 -3.1566,-4.91304 -1.07327,-1.62214 -2.34775,-3.132 -3.23326,-4.86585 -0.61742,-1.90376 -2.36785,-3.11678 -3.38796,-4.78701 -1.49037,-2.21047 -2.76041,-4.57034 -4.42411,-6.66397 -0.77401,-0.98224 -1.57996,-1.95699 -2.05903,-3.11934 -1.48328,-2.50005 -3.49061,-4.67002 -4.85742,-7.23242 -0.70341,-2.04421 -2.50061,-3.43272 -3.64577,-5.21719 -1.64107,-2.33812 -2.91927,-4.93877 -4.88642,-7.04065 -0.53734,-0.54558 -0.96401,-1.16386 -1.19849,-1.89046 -1.42735,-2.70826 -3.51895,-5.00861 -4.99718,-7.67932 -0.49921,-1.67006 -2.06914,-2.6652 -2.97253,-4.09532 -2.14178,-2.96979 -3.70738,-6.3396 -6.14016,-9.10331 -0.56412,-0.50208 -0.37186,-1.33852 -0.90221,-1.87324 -0.37253,-0.41039 -0.90138,-0.61066 -1.06626,-1.18847 -1.26497,-2.19131 -3.00704,-4.08493 -4.18883,-6.31883 -0.78459,-1.95662 -2.47283,-3.3591 -3.68302,-5.04738 -0.62948,-0.7713 -0.80649,-1.79077 -1.42655,-2.58098 -1.20599,-1.94257 -2.74931,-3.66514 -3.89453,-5.64063 -1.28291,-2.45297 -3.16082,-4.53933 -4.62055,-6.88771 -1.11901,-1.73151 -2.0729,-3.59463 -3.54011,-5.07068 -1.74647,-2.24645 -2.89793,-4.88127 -4.56004,-7.18028 -1.23074,-1.70881 -3.37659,-2.35434 -5.39454,-2.42773 -4.57721,-0.17645 -9.16081,-0.0296 -13.74062,-0.0762 -1.96471,0 -3.92943,0 -5.89414,0 -0.2295,58.48643 -0.69426,116.97153 -1.08203,175.45703 8.17317,0 16.34635,0 24.51953,0 0.36332,-41.21116 0.70348,-82.42253 1.06618,-123.63369 0.0356,-3.68742 0.0913,-7.37469 0.16038,-11.06162 0.61691,0.92653 1.32916,1.8219 1.64453,2.89649 0.26702,0.70563 1.10769,0.90041 1.32458,1.61769 1.74333,2.91921 3.93539,5.54082 5.71785,8.4372 1.54257,2.48984 3.03923,5.03786 5.03243,7.20293 0.4803,0.57877 0.48041,1.45794 1.15952,1.91015 0.59612,0.36927 0.68566,1.16381 1.10832,1.70691 2.2387,3.74795 5.01693,7.15019 7.1529,10.96152 1.02114,1.57936 2.37973,2.90699 3.34242,4.53046 2.35992,3.58718 4.50796,7.34022 7.3319,10.59603 0.7775,0.83156 0.96925,1.97783 1.62746,2.89056 1.525,2.5501 3.48181,4.83192 4.90783,7.43606 0.13488,0.74008 0.70928,1.3085 1.27917,1.70853 0.98393,2.65303 3.31473,4.45471 4.74213,6.84224 1.29656,2.01711 2.30608,4.21169 3.77234,6.12199 1.19991,1.70597 2.56847,3.2923 3.83318,4.94202 0.44617,1.54304 1.58412,2.76916 2.41211,4.11914 1.4415,2.1114 3.05974,4.12955 4.33008,6.3418 0.90346,1.8475 2.2092,3.47425 3.49805,5.06641 1.14355,1.31296 1.90541,2.91892 2.84188,4.38268 1.03791,1.66507 1.9558,3.42788 3.19718,4.95325 1.25059,1.25498 2.26678,2.73334 3.24414,4.20704 0.52793,1.56156 1.63627,2.85024 2.52977,4.21738 1.11355,1.64186 2.38418,3.20674 3.29054,4.97207 0.96171,2.17856 2.74234,3.86231 4.04968,5.83156 1.70196,2.28582 3.08289,4.78019 4.5664,7.2059 0.99204,1.72141 2.77121,2.92596 4.7511,3.15377 3.39421,0.44185 6.83232,0.26661 10.2464,0.38376 4.11644,0.0719 8.23285,0.14543 12.34931,0.21602 -0.29895,-48.49124 -0.65728,-96.98208 -1.07095,-145.47248 -0.0863,-10.48509 -0.16949,-20.9702 -0.26108,-31.45525 -7.71744,0 -15.43489,0 -23.15234,0 -0.009,0.65755 -0.0182,1.3151 -0.0273,1.97266 z" />
    <path
       id="path5"
       style="fill:#0c090a;fill-opacity:1;stroke-width:0.525945"
       d="m 300.27734,125.39648 c -3.09949,0.10255 -6.23666,0.0877 -9.28711,0.70118 -0.77802,0.21715 -1.70497,0.62331 -1.84375,1.50781 -0.34286,1.74202 -0.22295,3.5516 -0.32734,5.32212 -0.40759,18.53176 -0.34273,37.0696 -0.4696,55.60449 -0.31009,63.61098 -0.59745,127.22206 -0.88274,190.83315 8.33268,0 16.66536,0 24.99804,0 -0.27491,-84.57486 -0.56558,-169.14968 -0.82226,-253.72461 -3.78814,-0.0962 -7.57493,-0.29861 -11.36524,-0.24414 z" />
    <path
       id="path4"
       style="fill:#0c090a;fill-opacity:1;stroke-width:0.525945"
       d="m 245.21484,128.07227 c 0.0143,6.97656 0.029,13.95312 0.043,20.92968 7.44336,0 14.88672,0 22.33008,0 -0.007,-7.64453 -0.0167,-15.28906 -0.0254,-22.93359 -7.45052,0 -14.90104,0 -22.35156,0 0.001,0.66797 0.003,1.33594 0.004,2.00391 z" />
    <path
       id="path3"
       style="fill:#0c090a;fill-opacity:1;stroke-width:0.18595"
       d="m 245.17578,146.80078 c -0.21594,52.66504 -0.4953,105.32984 -0.73563,157.99479 -0.0912,22.56302 -0.24048,45.12584 -0.33273,67.68881 -0.0288,2.30542 0.0515,4.60846 0.31055,6.90039 8.11263,0 16.22526,0 24.33789,0 -0.4077,-77.21451 -0.76901,-154.42928 -1.11911,-231.64407 -0.004,-0.97802 -0.008,-1.95604 -0.0118,-2.93406 -7.48112,0 -14.96224,0 -22.44336,0 -0.002,0.66471 -0.004,1.32943 -0.006,1.99414 z" />
    <path
       id="path2"
       style="fill:#0c090a;fill-opacity:1;stroke-width:0.18595"
       d="m 164.97266,264.94141 c -4.11791,0.0638 -8.21198,0.61999 -12.25054,1.39287 -0.83062,0.0252 -1.58408,0.37411 -2.35809,0.58979 -1.82918,0.43044 -3.71362,0.82874 -5.41647,1.60656 -0.80457,0.20793 -1.54409,0.5959 -2.34366,0.82242 -1.76071,0.80389 -3.50533,1.66461 -5.14101,2.70945 -0.84626,0.11911 -1.22366,0.95948 -1.92706,1.34136 -0.51834,0.39395 -0.98549,0.8488 -1.46356,1.2895 -0.15977,-1.57543 0.009,-3.34128 -1.01897,-4.65831 -0.64017,-0.95701 -1.54461,-1.78807 -2.69588,-2.03505 -2.08931,-0.78941 -4.3782,-0.56643 -6.56829,-0.68588 -4.77133,-0.0829 -9.543,-0.14265 -14.31452,-0.21256 0.0507,39.08212 -0.0172,78.16471 0.21247,117.24635 0.11107,12.7007 0.13942,25.40713 0.66741,38.09885 0.19888,2.94641 0.13691,5.92731 0.66963,8.83974 0.12123,0.92944 0.80292,1.58293 1.56494,2.05114 0.42388,0.3022 0.99337,-0.0336 1.52095,0.30121 2.32713,0.54235 4.72073,0.78767 7.10157,0.88659 4.27032,0.0685 8.54121,0.0907 12.81186,0.13081 0.0225,-21.07028 -0.061,-42.14105 0.0918,-63.21094 0.57677,0.27527 1.10804,0.68409 1.72742,0.87912 1.00517,0.57119 2.05562,1.05238 3.04104,1.65619 0.9958,0.5405 2.07642,0.90673 2.99912,1.56235 1.68265,0.87872 3.47441,1.4903 5.24805,2.13672 0.65798,0.40105 1.46015,0.33052 2.13881,0.68455 0.84509,0.1871 1.67015,0.38592 2.49205,0.66115 0.74917,0.0686 1.45211,0.26425 2.17383,0.46094 2.28198,0.32501 4.56603,0.65413 6.8721,0.76791 3.2216,0.26253 6.46787,0.11615 9.67673,-0.2269 1.40157,-0.27938 2.85556,-0.27856 4.24849,-0.61609 2.36188,-0.33942 4.65346,-1.0593 6.95109,-1.66099 1.13796,-0.30962 2.26463,-0.68587 3.34143,-1.18385 2.19829,-0.65708 4.19479,-1.83848 6.28439,-2.74272 0.5993,-0.296 1.1838,-0.65112 1.74295,-1.01119 1.20227,-0.55221 2.21924,-1.43296 3.36537,-2.08741 2.63674,-1.91326 5.11141,-4.05885 7.35874,-6.41719 2.00767,-2.21907 3.76425,-4.66976 5.32244,-7.2133 0.51621,-0.54751 0.57311,-1.33215 1.02377,-1.91101 0.82178,-1.43516 1.54627,-2.95478 2.19683,-4.46606 0.69596,-0.81398 0.70931,-1.94143 1.20886,-2.85432 1.1961,-3.3412 2.30161,-6.73251 3.06892,-10.19524 0.5352,-0.54756 0.21226,-1.34171 0.44371,-2.01473 0.64517,-3.84481 1.22494,-7.71255 1.34714,-11.61645 0.20735,-4.58715 0.063,-9.19431 -0.59749,-13.74187 -0.37566,-2.90899 -0.99472,-5.78704 -1.69092,-8.63451 -0.36839,-1.39773 -0.9334,-2.72699 -1.36728,-4.10203 -0.65901,-1.7487 -1.54187,-3.39892 -2.27384,-5.11502 -0.0945,-0.96 -1.0438,-1.46228 -1.32226,-2.35352 -0.287,-0.57502 -0.61246,-1.10766 -0.94727,-1.65625 -0.28204,-0.59268 -0.76053,-1.08246 -1.07923,-1.65526 -1.18309,-1.21059 -2.07138,-2.69332 -3.23527,-3.93151 -0.79067,-0.87197 -1.57795,-1.73508 -2.32805,-2.63499 -1.07984,-1.02722 -2.30498,-1.93315 -3.3447,-2.98317 -0.20622,-0.59419 -0.9955,-0.64599 -1.37201,-1.1285 -0.63827,-0.40121 -1.14386,-0.89163 -1.69933,-1.39118 -0.44289,-0.32289 -0.86993,-0.58291 -1.37615,-0.84835 -0.58405,-0.27295 -1.00404,-0.90832 -1.69026,-1.02274 -1.11927,-0.82804 -2.3828,-1.43351 -3.57226,-2.15039 -2.07012,-1.04151 -4.1637,-2.07537 -6.39615,-2.71698 -1.16955,-0.45096 -2.3293,-0.93827 -3.5725,-1.14245 -3.24545,-1.09972 -6.68583,-1.49512 -10.09078,-1.75728 -1.81655,-0.12737 -3.63952,-0.16534 -5.4601,-0.12938 z m 1.91992,22.6875 c 0.58881,0.0168 0.93565,0.0202 1.55667,0.0769 1.51516,0.20134 3.0644,0.29273 4.51755,0.78637 0.60801,0.19827 1.25713,0.3882 1.89453,0.55469 0.38084,-0.23268 0.95161,0.17532 1.36635,0.29741 1.26306,0.66809 2.77361,0.86295 3.81138,1.91352 0.55554,-0.13352 0.85637,0.5437 1.39844,0.56055 2.14621,1.2829 4.03526,2.96096 5.86221,4.6434 0.77182,0.90088 1.47907,1.85114 2.24889,2.75752 0.60926,0.75978 1.21486,1.5123 1.58031,2.42134 0.69142,0.85793 1.03729,1.91733 1.53806,2.88962 0.50518,1.10651 0.8815,2.26355 1.25778,3.41044 1.14478,2.89224 1.46022,6.02143 1.79694,9.08701 0.0573,2.85027 0.11008,5.71688 -0.0752,8.55825 -0.28079,1.48856 -0.44778,2.99755 -0.7805,4.47776 -0.36814,1.86033 -0.8351,3.54919 -1.35036,5.38161 -0.62138,0.95527 -0.59355,2.16707 -1.26757,3.09571 -0.26144,0.86429 -0.61234,1.69107 -1.12696,2.4375 -0.70856,1.71852 -1.79838,3.24705 -2.77112,4.81391 -0.67842,0.72957 -1.17329,1.58759 -1.89735,2.27803 -0.32927,0.5444 -1.00179,0.70205 -1.27858,1.29737 -0.66929,0.79171 -1.56212,1.43105 -2.32129,2.16089 -1.52367,1.31532 -3.20904,2.43555 -4.94137,3.45116 -0.94371,0.43003 -1.88064,0.72417 -2.78247,1.02403 -2.58792,0.80893 -5.34417,0.7267 -8.02539,0.83984 -2.17543,0.10799 -4.34603,-0.0979 -6.51172,-0.27344 -1.10894,-0.24027 -2.25772,-0.22046 -3.35484,-0.51997 -2.47189,-0.42035 -4.96374,-0.91692 -7.31118,-1.79643 -0.91485,-0.37382 -1.80964,-0.75964 -2.59775,-1.36877 -0.75976,-0.38105 -1.24156,-1.10605 -1.9571,-1.52896 -0.90137,-0.60726 -1.58391,-1.56413 -2.33705,-2.36377 -1.02639,-1.22263 -2.03885,-2.48899 -2.73505,-3.92405 -0.72229,-0.80657 -1.04496,-1.9004 -1.59286,-2.83048 -1.38374,-2.73979 -2.25874,-5.69492 -3.11027,-8.62655 -0.8084,-3.02677 -1.27893,-6.12948 -1.47518,-9.25451 -0.3196,-4.02272 -0.0319,-8.08369 0.68624,-12.04866 0.52919,-2.30176 1.1085,-4.63018 2.22449,-6.72222 0.50649,-0.75023 0.6684,-1.67451 1.15234,-2.44336 0.54959,-0.57325 0.85125,-1.3022 1.37811,-1.88459 0.62135,-1.27089 1.68434,-2.28647 2.58674,-3.37713 1.48955,-1.70032 3.25211,-3.14684 5.08716,-4.44942 0.82934,-0.52747 1.59839,-1.14874 2.49487,-1.57402 0.8285,-0.52925 1.74221,-0.95863 2.60522,-1.40189 0.82246,-0.14962 1.43227,-0.76191 2.27581,-0.86201 0.68994,-0.20001 1.33661,-0.57513 2.07795,-0.48414 0.54521,-0.65785 1.47783,-0.44668 2.17969,-0.83008 2.04052,-0.42673 4.11714,-0.64683 6.2039,-0.63953 0.60629,-0.0175 1.21306,-0.007 1.81954,-0.0109 z" />
    <path
       style="fill:#f8fbf8;stroke-width:2.29158;fill-opacity:1"
       d="M 256.40623,595.6089 C 188.33789,586.86125 117.07624,548.20624 72.496176,495.84915 27.825575,443.38572 3.6080717,382.24144 0.41339087,313.85484 -2.0700221,260.69398 6.5685997,216.14206 28.147136,170.82355 44.575267,136.32177 60.247651,113.84474 86.382926,87.302963 142.99352,29.811793 214.6902,0 296.34459,0 c 81.71608,0 152.86289,29.560868 210.08024,87.286443 42.02684,42.400157 70.74596,96.646537 82.29915,155.451607 4.72007,24.02489 4.2441,91.60585 -0.8113,115.1903 -24.2534,113.14713 -106.38472,201.19129 -214.46479,229.90466 -37.52121,9.96816 -78.6966,12.70374 -117.04166,7.77589 z M 132.02677,400.31047 v -32.26092 l 9.69931,5.12815 c 18.61247,9.84066 46.23217,5.26855 60.33643,-9.98794 12.88686,-13.93964 18.03562,-40.97186 11.8004,-61.95479 -5.9009,-19.85788 -25.65264,-34.33632 -46.84215,-34.33632 -12.74422,0 -24.91426,3.42959 -31.00016,8.73599 -3.6366,3.17085 -3.99383,3.03878 -3.99383,-1.47633 0,-4.34292 -1.27527,-4.95865 -10.26987,-4.95865 h -10.26986 v 80.15184 c 0,44.08353 0.68466,80.84216 1.52147,81.68586 0.83679,0.84371 5.45822,1.53401 10.26986,1.53401 h 8.7484 z m 15.41734,-44.9819 c -14.31666,-7.83152 -20.38264,-37.62212 -10.86528,-53.36054 12.59366,-20.82557 42.9185,-22.04335 55.78779,-2.24036 9.58224,14.74492 6.20163,40.57112 -6.81958,52.09816 -6.83105,6.04718 -9.81896,7.09942 -19.93737,7.02109 -6.54614,-0.0506 -14.72063,-1.63393 -18.16556,-3.51835 z M 266.1252,252.51735 265.535,127.68755 h -9.12877 -9.12877 l -0.59019,124.8298 -0.5902,124.82979 h 10.30916 10.30916 z m 43.91254,-0.70757 -0.42437,-124.36071 -9.2219,0.0658 -9.75235,0.1728 -0.5902,124.8298 -0.59021,124.82979 h 10.28953 10.2895 z m 55.30971,55.9318 0.604,-69.60555 46.78494,69.54119 46.78493,69.54122 10.8682,0.0644 10.86818,0.0644 -0.59833,-85.71262 -0.70441,-87.21016 -9.34788,0.25678 -9.87832,-0.17121 -0.60373,70.45256 -0.60371,70.45237 -47.0551,-69.74661 -47.0551,-69.74662 h -9.9997 -9.99969 l -0.59833,85.71261 -0.59832,85.71262 h 10.26417 10.26417 z"
       id="path1"
       sodipodi:nodetypes="sssssssssssccssssssscsssccssssssccccccccccccccccccccccccccccccccccccccc" />
  </g>
</svg>
