<?xml version="1.0" encoding="UTF-8" standalone="no"?>
<!-- Created with Inkscape (http://www.inkscape.org/) -->

<svg
   version="1.1"
   id="svg1"
   width="592"
   height="598"
   viewBox="0 0 592 598"
   sodipodi:docname="FACT0RN_SNOWDRIFT_SOLLID_TRANSPARENT.svg"
   inkscape:version="1.3.2 (091e20e, 2023-11-25, custom)"
   xmlns:inkscape="http://www.inkscape.org/namespaces/inkscape"
   xmlns:sodipodi="http://sodipodi.sourceforge.net/DTD/sodipodi-0.dtd"
   xmlns="http://www.w3.org/2000/svg"
   xmlns:svg="http://www.w3.org/2000/svg">
  <defs
     id="defs1" />
  <sodipodi:namedview
     id="namedview1"
     pagecolor="#ffffff"
     bordercolor="#000000"
     borderopacity="0.25"
     inkscape:showpageshadow="2"
     inkscape:pageopacity="0.0"
     inkscape:pagecheckerboard="0"
     inkscape:deskcolor="#d1d1d1"
     inkscape:zoom="5.3777954"
     inkscape:cx="104.31784"
     inkscape:cy="318.62499"
     inkscape:window-width="2560"
     inkscape:window-height="1351"
     inkscape:window-x="-9"
     inkscape:window-y="-9"
     inkscape:window-maximized="1"
     inkscape:current-layer="g1" />
  <g
     inkscape:groupmode="layer"
     inkscape:label="Image"
     id="g1">
    <path
       style="fill:#f8fbf8;stroke-width:2.29158;fill-opacity:1"
       d="M 256.40623,595.6089 C 188.33789,586.86125 117.07624,548.20624 72.496176,495.84915 27.825575,443.38572 3.6080717,382.24144 0.41339087,313.85484 -2.0700221,260.69398 6.5685997,216.14206 28.147136,170.82355 44.575267,136.32177 60.247651,113.84474 86.382926,87.302963 142.99352,29.811793 214.6902,0 296.34459,0 c 81.71608,0 152.86289,29.560868 210.08024,87.286443 42.02684,42.400157 70.74596,96.646537 82.29915,155.451607 4.72007,24.02489 4.2441,91.60585 -0.8113,115.1903 -24.2534,113.14713 -106.38472,201.19129 -214.46479,229.90466 -37.52121,9.96816 -78.6966,12.70374 -117.04166,7.77589 z M 132.02677,400.31047 v -32.26092 l 9.69931,5.12815 c 18.61247,9.84066 46.23217,5.26855 60.33643,-9.98794 12.88686,-13.93964 18.03562,-40.97186 11.8004,-61.95479 -5.9009,-19.85788 -25.65264,-34.33632 -46.84215,-34.33632 -12.74422,0 -24.91426,3.42959 -31.00016,8.73599 -3.6366,3.17085 -3.99383,3.03878 -3.99383,-1.47633 0,-4.34292 -1.27527,-4.95865 -10.26987,-4.95865 h -10.26986 v 80.15184 c 0,44.08353 0.68466,80.84216 1.52147,81.68586 0.83679,0.84371 5.45822,1.53401 10.26986,1.53401 h 8.7484 z m 15.41734,-44.9819 c -14.31666,-7.83152 -20.38264,-37.62212 -10.86528,-53.36054 12.59366,-20.82557 42.9185,-22.04335 55.78779,-2.24036 9.58224,14.74492 6.20163,40.57112 -6.81958,52.09816 -6.83105,6.04718 -9.81896,7.09942 -19.93737,7.02109 -6.54614,-0.0506 -14.72063,-1.63393 -18.16556,-3.51835 z M 266.1252,252.51735 265.535,127.68755 h -9.12877 -9.12877 l -0.59019,124.8298 -0.5902,124.82979 h 10.30916 10.30916 z m 43.91254,-0.70757 -0.42437,-124.36071 -9.2219,0.0658 -9.75235,0.1728 -0.5902,124.8298 -0.59021,124.82979 h 10.28953 10.2895 z m 55.30971,55.9318 0.604,-69.60555 46.78494,69.54119 46.78493,69.54122 10.8682,0.0644 10.86818,0.0644 -0.59833,-85.71262 -0.70441,-87.21016 -9.34788,0.25678 -9.87832,-0.17121 -0.60373,70.45256 -0.60371,70.45237 -47.0551,-69.74661 -47.0551,-69.74662 h -9.9997 -9.99969 l -0.59833,85.71261 -0.59832,85.71262 h 10.26417 10.26417 z"
       id="path1"
       sodipodi:nodetypes="sssssssssssccssssssscsssccssssssccccccccccccccccccccccccccccccccccccccc" />
  </g>
</svg>
