<?xml version="1.0" encoding="UTF-8" standalone="no"?>
<!-- Created with Inkscape (http://www.inkscape.org/) -->

<svg
   version="1.1"
   id="svg1"
   width="592"
   height="598"
   viewBox="0 0 592 598"
   sodipodi:docname="FACT0RN_SNOWDRIFT_FRAME_FILLED.svg"
   inkscape:version="1.3.2 (091e20e, 2023-11-25, custom)"
   xmlns:inkscape="http://www.inkscape.org/namespaces/inkscape"
   xmlns:sodipodi="http://sodipodi.sourceforge.net/DTD/sodipodi-0.dtd"
   xmlns="http://www.w3.org/2000/svg"
   xmlns:svg="http://www.w3.org/2000/svg">
  <defs
     id="defs1" />
  <sodipodi:namedview
     id="namedview1"
     pagecolor="#ffffff"
     bordercolor="#000000"
     borderopacity="0.25"
     inkscape:showpageshadow="2"
     inkscape:pageopacity="0.0"
     inkscape:pagecheckerboard="0"
     inkscape:deskcolor="#d1d1d1"
     inkscape:zoom="0.9506689"
     inkscape:cx="290.3219"
     inkscape:cy="358.16887"
     inkscape:window-width="2560"
     inkscape:window-height="1351"
     inkscape:window-x="-9"
     inkscape:window-y="-9"
     inkscape:window-maximized="1"
     inkscape:current-layer="g1" />
  <g
     inkscape:groupmode="layer"
     inkscape:label="Image"
     id="g1">
    <path
       id="path2"
       style="fill:#0c090a;fill-opacity:1;stroke-width:1.05189"
       d="m 292.18555,17.140625 c -13.05412,0.164955 -26.10179,1.332854 -38.94829,3.677004 -11.94254,2.169268 -23.77227,4.977903 -35.40721,8.436648 -18.46207,5.485998 -36.31625,12.96748 -53.25146,22.132394 -8.76877,4.734526 -17.311,9.882705 -25.70058,15.258046 -6.01989,3.937391 -11.55043,8.556627 -17.14684,13.060198 -11.62063,9.649942 -22.551619,20.135595 -32.667264,31.353125 -4.209549,4.73207 -8.278763,9.58809 -12.44512,14.35716 -3.938488,5.26124 -7.585417,10.73321 -11.244725,16.18939 -12.955145,19.61424 -23.33908,40.88065 -31.351029,62.96478 -6.260213,17.41702 -11.070525,35.39874 -13.694087,53.73361 -1.183188,9.48112 -1.488377,19.04539 -1.710757,28.58952 -0.253761,14.80631 -0.07803,29.63112 0.914582,44.40889 0.433118,6.01878 0.985784,12.0541 2.376789,17.93928 2.919938,13.33138 6.53863,26.50712 10.671425,39.5121 2.441125,7.57802 5.020451,15.14171 8.53399,22.30131 4.492523,9.42564 9.085811,18.80769 14.004041,28.01959 9.371688,16.57477 20.72816,31.98824 33.36767,46.21187 8.929567,10.04836 18.584785,19.44229 28.802035,28.17602 2.56748,2.29836 5.15657,4.57517 7.92651,6.6302 6.90861,5.24214 13.93671,10.33695 21.18385,15.10282 2.43405,1.66168 5.16691,2.80159 7.64789,4.38727 6.11045,3.60714 12.23588,7.19751 18.49368,10.54382 6.05362,2.45142 11.8819,5.43859 17.90396,7.973 21.43348,9.18078 44.01011,15.78853 67.10207,19.12237 4.29145,0.62426 8.56361,1.39473 12.86826,1.9194 7.31889,0.63201 14.67682,0.54387 22.0161,0.47991 12.26772,-0.19798 24.54128,-0.67517 36.76011,-1.81457 6.33111,-0.6104 12.59318,-1.76168 18.8549,-2.85003 9.47212,-1.67127 18.79688,-4.10051 27.94813,-7.0499 9.66079,-3.02832 19.21409,-6.41598 28.52326,-10.40397 19.21709,-8.21509 37.6597,-18.32992 54.64967,-30.52048 7.22177,-5.2001 14.16626,-10.8016 20.57762,-16.97973 8.82567,-8.40378 17.4749,-16.99866 25.80003,-25.89966 2.26324,-2.38453 4.34629,-4.9261 6.37654,-7.50911 1.79787,-2.23462 3.7672,-4.32721 5.43659,-6.66531 4.81593,-6.47062 9.55773,-13.00411 13.98161,-19.75077 14.12534,-21.87226 24.50721,-45.9964 32.13012,-70.84513 12.20522,-39.96206 15.70046,-82.7157 9.00935,-124.0164 -3.16155,-19.30238 -8.54488,-38.20376 -15.42096,-56.49983 -5.15576,-13.62459 -11.16129,-26.94784 -18.34827,-39.62784 -5.3292,-9.42255 -10.94522,-18.69947 -17.19522,-27.54354 -2.03384,-2.93885 -4.29361,-5.71069 -6.68298,-8.36579 -2.97143,-3.48267 -5.74222,-7.13642 -8.90185,-10.45602 -7.6972,-8.25795 -15.60674,-16.321479 -23.73985,-24.150181 -4.34129,-4.211681 -9.09564,-7.964733 -13.78485,-11.77551 -8.82478,-7.078345 -18.19528,-13.477875 -28.04725,-19.041847 -10.5309,-5.959348 -21.38787,-11.321505 -32.30192,-16.53826 -11.1419,-5.284758 -22.59734,-9.996996 -34.50762,-13.257704 -10.73358,-2.97052 -21.67509,-5.113129 -32.62191,-7.126495 -10.96099,-2.000756 -22.05322,-3.356939 -33.19756,-3.660447 -5.17864,-0.172944 -10.36217,-0.185116 -15.54318,-0.131201 z m 16.12304,234.154295 c 0,41.24349 0,82.48698 0,123.73047 -5.68226,0.18125 -11.36455,0.36161 -17.04687,0.54102 0.17722,-82.4655 0.35431,-164.93099 0.53125,-247.39649 5.5052,-0.16164 11.01041,-0.3231 16.51562,-0.48437 0,41.20312 0,82.40625 0,123.60937 z M 256.66211,127.70117 c 2.83919,0 5.67838,0 8.51758,0 0,82.64258 0,165.28516 0,247.92774 -5.67904,0 -11.35808,0 -17.03711,0 0,-82.64258 0,-165.28516 0,-247.92774 2.83984,0 5.67969,0 8.51953,0 z m 98.66406,78.89258 c 3.42774,0 6.85547,0 10.28321,0 19.49503,29.38512 39.11262,58.68521 58.83265,87.92213 11.26782,16.72044 22.5644,33.42569 34.041,50.00628 1.05253,1.52842 2.10506,3.05684 3.15759,4.58526 0.21266,-35.58208 0.36411,-71.1646 0.63942,-106.74626 0.10201,-11.9229 0.27157,-23.84507 0.42308,-35.76741 5.6875,0 11.375,0 17.0625,0 -0.0211,51.93461 0.0645,103.86943 -0.11235,155.80384 -0.0228,4.44825 -0.0416,8.89656 -0.0927,13.3446 -6.5764,-0.4813 -13.16396,-0.756 -19.74805,-1.11328 -21.48595,-31.57827 -42.74423,-63.31151 -64.14569,-94.9462 -5.88879,-8.72512 -11.87545,-17.38442 -17.95302,-25.97917 -2.24456,-3.14683 -4.31316,-6.41828 -6.60832,-9.52776 -1.00479,-1.22897 -2.23791,-2.73196 -3.98631,-2.6229 -1.28609,0.10359 -2.19651,1.30159 -2.24027,2.54676 -0.49421,4.83549 -0.53865,9.70599 -0.73407,14.55996 -0.69816,24.80792 -0.9521,49.62633 -1.07372,74.44305 -0.0478,14.00023 -0.0416,28.00058 -0.0633,42.00087 -5.67969,0 -11.35937,0 -17.03906,0 0,-56.16993 0,-112.33985 0,-168.50977 3.11914,0 6.23828,0 9.35742,0 z m -167.91601,66.28906 c 6.66166,3.2922 12.77435,7.86865 17.29536,13.81066 3.67672,4.83849 6.65688,10.30346 8.10503,16.23622 0.21271,0.86953 0.46461,2.00628 0.63587,2.99548 1.17226,6.8191 1.21806,13.76959 1.16928,20.66964 -0.0332,1.98878 -0.11185,3.91664 -0.26023,5.93253 -0.0365,0.45013 -0.0858,1.11236 -0.13825,1.57177 -0.49558,5.51978 -1.87612,11.02224 -4.62347,15.86964 -0.23479,0.42956 -0.6619,1.16162 -0.98633,1.69727 -3.30296,5.38634 -7.60228,10.09085 -12.18938,14.4056 -2.76336,2.44137 -5.66333,4.81105 -8.97776,6.46698 -3.20312,1.52568 -6.68958,2.30326 -10.12192,3.12546 -1.87607,0.42512 -3.96719,0.8274 -5.95241,1.09319 -1.46688,0.21355 -3.20393,0.35905 -4.5222,0.41853 -1.94459,0.0811 -3.89403,0.0389 -5.83203,-0.14258 -0.3926,-0.0367 -1.17756,-0.12213 -1.71768,-0.19473 -6.01554,-0.76174 -11.72655,-2.87877 -17.44638,-4.78378 -2.42931,-0.7371 -4.83244,-1.63566 -7.34184,-2.05526 -1.09012,-0.18828 -2.06664,0.57046 -2.43535,1.56255 -0.82135,2.18841 -0.80486,4.57954 -0.99305,6.88243 -0.46064,9.89791 -0.39162,19.81112 -0.46008,29.7173 -0.0241,7.56393 -0.0483,15.12787 -0.0724,22.69181 -5.68164,0 -11.36328,0 -17.04492,0 0,-53.36524 0,-106.73047 0,-160.09571 4.69184,0.0755 9.42218,-0.24365 14.07858,0.47443 1.00407,0.24042 2.20787,0.33717 2.94486,1.12909 -0.0573,1.26125 0.35897,2.73789 1.64062,3.24219 1.67962,0.66269 3.45134,-0.20363 5.05518,-0.70991 4.21604,-1.48182 8.24376,-3.44112 12.56682,-4.60987 4.47109,-1.07894 9.11165,-0.89134 13.67634,-0.99139 5.5196,-0.0488 11.0394,-0.0711 16.55908,-0.10876 2.4629,1.23308 4.92579,2.46615 7.38868,3.69922 z" />
    <path
       id="path3"
       style="fill:#0c090a;fill-opacity:1;stroke-width:1.05189"
       d="m 164.84961,284.17188 c -4.37619,0.1966 -8.69428,1.18751 -12.8295,2.60077 -7.16094,2.65746 -12.79497,8.46749 -16.26416,15.16485 -5.76392,11.11507 -6.42284,24.6167 -2.30268,36.38699 1.59224,4.01172 4.28573,7.46655 7.03306,10.74973 2.9115,3.28084 6.01143,6.53409 9.85742,8.72266 3.65024,1.82955 7.82304,2.18016 11.84278,2.31239 5.43717,0.0829 10.90598,-0.50224 16.16944,-1.88434 3.14261,-0.80956 5.9378,-2.62681 8.18005,-4.94559 6.98679,-6.92291 10.92049,-16.4906 12.06385,-26.16683 1.14517,-9.88471 -0.5537,-20.29452 -5.80157,-28.84437 -2.31767,-3.4488 -5.6745,-6.04215 -9.08983,-8.33334 -4.04445,-2.64654 -8.54168,-4.72826 -13.35875,-5.42587 -1.81641,-0.29697 -3.66136,-0.39439 -5.50011,-0.33705 z" />
    <path
       style="fill:#f8fbf8;stroke-width:2.2917;fill-opacity:1"
       d="m 252.45624,594.622 c -11.08361,-1.73925 -27.86853,-5.34648 -37.2998,-8.01608 -9.43129,-2.66959 -25.32705,-8.38534 -35.32392,-12.70165 -9.99688,-4.31631 -24.52872,-11.58058 -32.29297,-16.1428 -7.76425,-4.56222 -21.41278,-13.8076 -30.33008,-20.54529 C 108.29215,530.4785 94.114506,517.95523 85.703546,509.38672 77.292586,500.81823 65.408241,487.06903 59.293844,478.83296 53.179445,470.59687 43.97191,456.44475 38.832633,447.3838 33.693355,438.32283 25.983138,422.20579 21.698824,411.56816 17.414512,400.9305 11.808665,383.9408 9.2413763,373.81327 6.6740877,363.68574 3.5516997,348.14919 2.302749,339.2876 1.0537984,330.42601 0.01764187,312.30003 1.638164e-4,299.00765 -0.01809002,285.71527 1.4915026,264.64645 3.3530294,252.18808 5.2145562,239.72971 10.283009,218.84843 14.616266,205.78527 18.949545,192.72209 26.259501,174.43163 30.860633,165.13981 35.461765,155.84796 44.985843,139.4415 52.025208,128.681 59.064597,117.9205 74.611509,99.243329 86.573912,87.176193 98.536293,75.109034 117.13944,59.331169 127.91425,52.114268 c 10.77481,-7.2169 30.50178,-18.379465 43.83774,-24.805705 14.32845,-6.90449 35.24945,-14.555816 51.1431,-18.7042827 22.49416,-5.8713207 32.73638,-7.2159115 62.58308,-8.21591305 27.41287,-0.91845193 41.1678,-0.28511299 59.32499,2.73162515 13.00079,2.1599951 32.58117,6.9206936 43.51198,10.5793096 10.9308,3.658617 27.62507,10.362352 37.09832,14.897183 9.4733,4.534809 26.33683,14.393868 37.47456,21.909025 11.13771,7.515134 28.0959,21.05486 37.68482,30.088295 9.58894,9.033435 24.10723,25.361135 32.26289,36.283815 8.15566,10.92266 20.32989,30.73495 27.05388,44.02734 6.72398,13.29238 14.84222,31.93625 18.04053,41.4308 3.19829,9.49456 7.68376,26.06689 9.96772,36.82739 3.13513,14.77063 4.14,29.43438 4.10106,59.8445 -0.0391,30.37865 -1.08584,45.08914 -4.25911,59.8445 -2.31412,10.7605 -7.28545,28.36859 -11.04735,39.12909 -3.76195,10.7605 -9.93407,25.77917 -13.71587,33.37482 -3.78179,7.59565 -11.50161,21.06066 -17.15515,29.92225 -5.65353,8.86159 -16.5602,23.69241 -24.23706,32.95735 -7.67684,9.26496 -22.82908,24.28363 -33.67161,33.37481 -10.84256,9.09121 -27.85582,21.40863 -37.80726,27.3721 -9.95143,5.96348 -26.39328,14.42621 -36.53739,18.8061 -10.14414,4.37989 -26.02572,10.10954 -35.29239,12.73254 -9.26667,2.62302 -27.07837,6.32446 -39.58154,8.22545 -12.50317,1.90098 -32.48744,3.36213 -44.40948,3.24697 -11.92204,-0.11505 -30.74485,-1.63239 -41.82847,-3.37163 z m 93.26577,-20.6916 c 10.09372,-1.8099 27.19108,-6.30465 37.99413,-9.98831 10.80306,-3.68364 28.21403,-11.04264 38.69106,-16.35333 10.47701,-5.31072 27.04819,-15.44739 36.82489,-22.52594 9.77666,-7.07856 26.4612,-21.95878 37.07674,-33.06717 10.61555,-11.10837 25.16502,-29.27203 32.33216,-40.36368 7.16715,-11.09167 16.98611,-29.42052 21.81992,-40.73081 4.83379,-11.31028 11.2451,-29.82322 14.24733,-41.13987 3.00225,-11.31662 6.66401,-31.03487 8.13726,-43.8183 1.55176,-13.46458 2.03318,-31.86771 1.14438,-43.74472 -0.84386,-11.27617 -3.1534,-28.42043 -5.13234,-38.09834 -1.97892,-9.67789 -6.67306,-26.40024 -10.43136,-37.16074 -3.75833,-10.7605 -10.7272,-27.33283 -15.48634,-36.82739 -4.75917,-9.49456 -14.07108,-25.03111 -20.69314,-34.52567 -6.62208,-9.49456 -20.35089,-25.54899 -30.50847,-35.676524 C 481.58067,89.782076 465.33434,75.990934 455.63527,69.26264 445.93623,62.534347 427.4836,51.97833 414.62944,45.80484 401.77529,39.631351 383.55741,32.4124 374.14527,29.762716 c -9.41214,-2.64966 -26.86737,-6.329383 -38.78941,-8.177152 -11.92204,-1.847768 -29.37727,-3.359578 -38.78941,-3.359578 -9.41214,0 -26.95349,1.496389 -38.98077,3.325306 -12.02726,1.82894 -32.04944,6.585611 -44.49373,10.57038 -12.44428,3.984791 -32.41915,12.376924 -44.38859,18.64918 -11.96946,6.272256 -28.83928,16.75013 -37.48847,23.284182 -8.64919,6.534029 -22.50856,18.72219 -30.79856,27.084796 -8.29001,8.3626 -20.329353,22.2854 -26.754136,30.93955 -6.424759,8.65414 -16.304969,24.63592 -21.95604,35.51505 -5.651047,10.8791 -13.411325,28.81743 -17.245042,39.86292 -3.833718,11.04548 -8.756391,29.17146 -10.939253,40.27995 -2.699356,13.73687 -3.919055,30.50454 -3.813205,52.4212 0.101992,21.1357 1.498594,38.56012 4.058467,50.63765 2.146538,10.12754 6.442169,26.18197 9.545825,35.67653 3.103677,9.49457 9.876286,25.94761 15.050246,36.56234 5.173937,10.61471 14.96783,27.18704 21.764192,36.82739 6.796361,9.64032 19.197634,24.59788 27.558395,33.23902 8.360761,8.64111 22.960461,21.64827 32.443761,28.90482 9.48331,7.25654 27.45193,18.46039 39.93028,24.89747 12.47835,6.43706 32.4423,14.81959 44.36434,18.62784 11.92204,3.80824 29.37728,8.07257 38.78941,9.47628 9.41214,1.40373 21.22009,2.92084 26.2399,3.37137 5.01981,0.45052 17.85454,0.37426 28.52163,-0.1694 10.66709,-0.54374 27.6532,-2.46945 37.74691,-4.27938 z M 111.7463,350.79615 V 269.0854 h 10.26779 c 7.45202,0 10.26779,0.91594 10.26779,3.34003 0,2.74632 1.72379,2.55071 9.69735,-1.10031 6.22314,-2.84952 14.83905,-4.45844 24.04907,-4.49089 9.72507,-0.0343 17.0808,1.36551 22.8173,4.34209 4.65608,2.41595 11.23476,7.33585 14.61929,10.93313 3.38457,3.59728 7.74837,10.39137 9.69736,15.09798 2.06871,4.99568 3.54364,15.32519 3.54364,24.81734 0,9.47586 -1.47623,19.83021 -3.53823,24.81732 -1.94604,4.70661 -6.82325,12.01211 -10.83822,16.23443 -4.015,4.2223 -10.03519,9.1227 -13.37822,10.88972 -3.34303,1.76703 -11.55726,3.84904 -18.25384,4.62667 -8.17183,0.94895 -15.17689,0.3083 -21.30253,-1.94826 -5.01981,-1.8492 -10.92379,-4.13039 -13.11995,-5.06931 -3.69015,-1.57766 -3.99302,0.66837 -3.99302,29.6122 v 31.31937 H 122.01409 111.7463 Z m 75.52426,-0.65691 c 3.5167,-3.97033 7.5419,-11.51907 8.94489,-16.775 1.40299,-5.25591 1.90535,-13.41049 1.11638,-18.12128 -0.78898,-4.71078 -3.3054,-11.66849 -5.59208,-15.46154 -2.28666,-3.79306 -8.01552,-8.74321 -12.73073,-11.00035 -5.82618,-2.78889 -11.51528,-3.70578 -17.75527,-2.86149 -5.05015,0.68331 -11.83793,3.20445 -15.08394,5.60256 -3.24603,2.39811 -7.69714,7.91174 -9.89138,12.25254 -2.1942,4.34081 -3.99105,12.32766 -3.99302,17.74858 -0.003,5.4209 1.39701,13.23756 3.10881,17.37031 1.71178,4.13276 6.53988,10.42346 10.7291,13.97932 6.89061,5.84884 8.91037,6.37082 21.185,5.47517 11.70521,-0.85407 14.44621,-1.98121 19.96224,-8.20882 z m 59.09783,-98.31667 V 126.37929 h 10.26777 10.26779 v 125.44328 125.44326 h -10.26779 -10.26777 z m 43.35287,0 V 126.37929 h 10.26778 10.26779 v 125.44328 125.44326 h -10.26779 -10.26778 z m 54.76153,39.12909 v -86.31418 l 10.83821,0.0997 10.83822,0.0997 46.77546,69.52714 46.77547,69.52719 0.60388,-69.62677 0.60392,-69.62678 h 10.2343 10.23433 v 86.31419 86.31417 h -11.03351 -11.03351 l -45.43931,-67.78393 c -24.99163,-37.2811 -46.20939,-67.83632 -47.1506,-67.90048 -0.94122,-0.0642 -1.7113,30.43854 -1.7113,67.78381 v 67.90048 h -10.26779 -10.26777 z"
       id="path1" />
  </g>
</svg>
